/* XPM */
static char * lcscan_xpm[] = {
"32 32 90 1",
" 	c #000000",
".	c #DBDBDB",
"+	c #494949",
"@	c #929292",
"#	c #FFFFFF",
"$	c #242424",
"%	c #B6B6B6",
"&	c #6D6D6D",
"*	c #232323",
"=	c #E6E6E6",
"-	c #A5A5A5",
";	c #060606",
">	c #0C0C0C",
",	c #B5B5B5",
"'	c #3E3E3E",
")	c #2F2F2F",
"!	c #878787",
"~	c #C1C1C1",
"{	c #D5D5D5",
"]	c #1F1F1F",
"^	c #A1A1A1",
"/	c #686868",
"(	c #2A2A2A",
"_	c #ACACAC",
":	c #E0E0E0",
"<	c #D0D0D0",
"[	c #101010",
"}	c #636363",
"|	c #171717",
"1	c #414141",
"2	c #020202",
"3	c #7D7D7D",
"4	c #010101",
"5	c #555555",
"6	c #151515",
"7	c #1A1A1A",
"8	c #050505",
"9	c #2B2B2B",
"0	c #E1E1E1",
"a	c #404040",
"b	c #F0F0F0",
"c	c #C3C3C3",
"d	c #7A7A7A",
"e	c #535353",
"f	c #545454",
"g	c #7B7B7B",
"h	c #676767",
"i	c #161616",
"j	c #262626",
"k	c #070707",
"l	c #595959",
"m	c #EFEFEF",
"n	c #9C9C9C",
"o	c #E5E5E5",
"p	c #FAFAFA",
"q	c #646464",
"r	c #EAEAEA",
"s	c #797979",
"t	c #5E5E5E",
"u	c #F5F5F5",
"v	c #343434",
"w	c #3F3F3F",
"x	c #0A0A0A",
"y	c #898989",
"z	c #4B4B4B",
"A	c #B2B2B2",
"B	c #8A8A8A",
"C	c #0B0B0B",
"D	c #9E9E9E",
"E	c #5F5F5F",
"F	c #F4F4F4",
"G	c #888888",
"H	c #D7D7D7",
"I	c #B1B1B1",
"J	c #CBCBCB",
"K	c #8D8D8D",
"L	c #EBEBEB",
"M	c #949494",
"N	c #A0A0A0",
"O	c #030303",
"P	c #5C5C5C",
"Q	c #717171",
"R	c #131313",
"S	c #787878",
"T	c #696969",
"U	c #D1D1D1",
"V	c #B0B0B0",
"W	c #C4C4C4",
"X	c #4F4F4F",
"Y	c #6F6F6F",
" .+@@  @@   #$  #$  #$  #$  #$%&",
" .+@@  @@   #$  #$  #$  #$  #$%&",
"*=+@-;>,@   #$  #' )#$  #' )#$%!",
"~{]'#^^#' /@#^( _:@<~[  _:@<~[}#",
"@|  1@@1  /@@@( 23@@2   23@@2 45",
"                                ",
"6  4$$]   7$$8   ]$$    [$$[  ;$",
"@  5##.  90##$  ab##5   c##&  d#",
"@  2e+.  4f #$  #g h#$  a6%&  i'",
"@    +.     #$  #j k#$    %&    ",
"@    +.     #$  #$  #$    %&    ",
"@    +.     #$  #$  #$    %&    ",
"@    +.     #$  #/ l#$    %&    ",
"mn  .op.  n.#:' qr.ms8  t.ur3 ].",
"+v  ++++  v+++6 4w++4   ]+++( x+",
"                                ",
"                                ",
"3   y..y  z..Ai B..t    B..t  CD",
"@  /btEF/voG+HI ytJ&    ytJ&  KL",
"@  @M48N@+.O P.   %&      %&  %Q",
"@  @@  @@+.  +.   %&      %&  %&",
"@  @@  @@+.  +.   %&      %&  %&",
"@  @-;>,@+0R S.   %&      %&  %!",
"</ '#^^#']{~@m! '@:~e   '@:~e }#",
"@/  1@@1  |@@T4 '@@@e   '@@@e 45",
"                                ",
"6  4$$]   ;$$7  [$$[     ]$$   6",
"@  5##.   s##0( c##&    ab##5 6U",
"@  2e+.  +b1 V. a6%&    #g h#$%W",
"@    +.  +.4 X.   %&    #j k#$%Y",
"@    +.  +.  +.   %&    #$  #$%&",
"@    +.  +.  +.   %&    #$  #$%&"};
